<svg width="1200" height="630" viewBox="0 0 1200 630" fill="none" xmlns="http://www.w3.org/2000/svg">
  <rect width="1200" height="630" fill="#171714"/>
  <rect x="58" y="58" width="1084" height="514" rx="8" fill="#24231d" stroke="#e45b24" stroke-opacity="0.42"/>
  <rect x="96" y="96" width="1008" height="52" rx="8" fill="#171714" stroke="#fffaf1" stroke-opacity="0.13"/>
  <circle cx="124" cy="122" r="7" fill="#e45b24"/>
  <circle cx="148" cy="122" r="7" fill="#b8c8a5"/>
  <circle cx="172" cy="122" r="7" fill="#0e7c75"/>
  <text x="96" y="236" fill="#b8c8a5" font-family="Menlo, Monaco, Consolas, monospace" font-size="22">HPF.kz / trans-caspian atlas</text>
  <text x="96" y="330" fill="#fffaf1" font-family="Georgia, Times New Roman, serif" font-size="70" font-weight="500">China · Kazakhstan · Europe</text>
  <text x="96" y="400" fill="#fffaf1" fill-opacity="0.68" font-family="Georgia, Times New Roman, serif" font-size="34">Deterministic cross-border logistics control platform</text>
  <rect x="96" y="466" width="212" height="54" rx="8" fill="#e45b24"/>
  <text x="122" y="500" fill="#fffaf1" font-family="Menlo, Monaco, Consolas, monospace" font-size="20">10-12d target</text>
  <rect x="334" y="466" width="206" height="54" rx="8" fill="#fffaf1" fill-opacity="0.08" stroke="#fffaf1" stroke-opacity="0.16"/>
  <text x="360" y="500" fill="#fffaf1" font-family="Menlo, Monaco, Consolas, monospace" font-size="20">3 languages</text>
  <path d="M772 222H1032" stroke="#fffaf1" stroke-width="2" stroke-opacity="0.16"/>
  <path d="M772 306H1032" stroke="#fffaf1" stroke-width="2" stroke-opacity="0.16"/>
  <path d="M772 390H1032" stroke="#fffaf1" stroke-width="2" stroke-opacity="0.16"/>
  <circle cx="812" cy="222" r="16" fill="#dfa88f"/>
  <circle cx="882" cy="306" r="16" fill="#9fc9a2"/>
  <circle cx="952" cy="390" r="16" fill="#9fbbe0"/>
  <circle cx="1032" cy="474" r="16" fill="#c0a8dd"/>
  <path d="M812 222C846 236 856 278 882 306C912 338 925 360 952 390C982 424 1002 450 1032 474" stroke="#e45b24" stroke-width="5" stroke-linecap="round"/>
</svg>
